<?xml version="1.0" encoding="UTF-8"?>
<svg id="_图层_1" data-name="图层 1" xmlns="http://www.w3.org/2000/svg" viewBox="0 0 63.32 55.24">
  <defs>
    <style>
      .cls-1 {
        fill: #ea7f26;
      }
    </style>
  </defs>
  <path class="cls-1" d="M59.91,.48c-1.3-.07-2.66,1.25-3.18,2.17-.44,.77-.68,1.61-.92,2.41-.18,.6-.34,1.17-.58,1.68-3.49,7.48-10.3,10.7-17.63,13.91-.3-.75-.59-1.5-.88-2.24-.95-2.42-1.87-4.78-2.83-7.11-.19-.46-.37-.91-.56-1.37-.78-1.94-1.59-3.94-2.65-5.8C29.13,1.44,26.62-.07,23.75,0c-3.01,.07-5.85,1.86-7.22,4.55-.83,1.62-1.56,3.23-2.17,4.78-2.05,5.2-4.08,10.4-6.11,15.6l-2.58,6.61c-.52,1.33-1.05,2.66-1.59,4-1.15,2.88-2.35,5.86-3.41,8.85-1.48,4.13-.44,7.88,2.72,9.79,1.15,.69,2.66,1.06,4.22,1.06,2.44,0,5.02-.9,6.52-2.83,1.68-2.15,3.21-4.82,4.68-8.15,3.06-6.91,7.94-11.68,14.92-14.56,.18,.47,.36,.93,.54,1.4,.67,1.73,1.3,3.36,2.12,4.96l.8,1.56c2.28,4.45,4.64,9.06,7.33,13.38,2.16,3.46,5.87,4.82,10.75,3.94,3.59-.65,6.12-3.02,7.31-6.86,.45-1.46,.68-3.12,.69-4.95,.04-10.89,.03-21.97,.02-32.68V5.41c0-.15,0-.31,.01-.47,.03-.68,.07-1.54-.39-2.2-.69-.99-1.77-2.18-3-2.25Zm-9.77,46.55c-2.24-3.35-4.03-6.4-5.46-9.31-1.25-2.55-2.32-5.16-3.45-7.93-.37-.91-.75-1.84-1.14-2.77,6.5-2.67,11.87-5.55,16.36-10.17,.01,8.44,.02,16.89,0,25.33,0,.9-.12,1.8-.25,2.76l-.04,.32c-.21,1.61-.97,2.57-2.31,2.94-1.56,.43-2.95,0-3.72-1.17ZM21.66,9.61c.65-1.78,1.08-2.63,2.16-2.64,0,0,.02,0,.02,0,.93,0,1.27,.71,1.82,2.31,.12,.34,.23,.67,.36,.98,1.35,3.27,2.61,6.49,3.95,9.9,.4,1.03,.81,2.07,1.22,3.11-.47,.25-.94,.49-1.41,.72-1.6,.82-3.1,1.59-4.59,2.48-5.81,3.47-10.1,8.71-13.11,16.02-.69,1.69-1.47,3.45-2.6,4.75-.27,.31-1.07,.47-1.78,.61-.07,.01-.15,.03-.22,.04,0-.03-.01-.06-.02-.09-.14-.64-.29-1.3-.16-1.66,1.6-4.29,3.34-8.63,5.01-12.82,.74-1.85,1.48-3.71,2.22-5.57,.94-2.38,1.87-4.75,2.8-7.13,1.34-3.43,2.68-6.85,4.04-10.27,.1-.24,.19-.49,.28-.75Z"/>
</svg>