<?xml version="1.0" encoding="UTF-8"?>
<svg id="_图层_1" data-name="图层 1" xmlns="http://www.w3.org/2000/svg" viewBox="0 0 394.9 55.42">
  <defs>
    <style>
      .cls-1 {
        fill: #252525;
      }
    </style>
  </defs>
  <path class="cls-1" d="M167.77,10.94l-2.2,1.26,3.23,.76c.5,.12,.97,.23,1.44,.33,4.93,1.08,9,4.41,11.16,9.14,2.11,4.63,1.97,9.76-.38,14.06-4.1,7.49-11.14,11.46-20.93,11.81-8.12,.29-16.4,.22-24.4,.15-2.63-.02-5.26-.04-7.9-.05-1.19,0-2.77-.23-3.54-1.26-.76-1.01-.54-2.53-.22-3.63,.74-2.58,1.69-5.17,2.6-7.68,.34-.94,.68-1.88,1.02-2.82,.73-2.05,1.48-4.1,2.23-6.14,1.59-4.34,3.24-8.84,4.63-13.34,1-3.24,.56-6.56-1.21-9.11-1.65-2.39-4.28-3.82-7.4-4.01-5.62-.35-10.65-.39-15.4-.13-8.32,.45-13.83,5.04-15.94,13.27-1.2,4.67-1.74,9.56-2.11,13.72-.15,1.72-.64,2.43-2.15,3.16-5.9,2.85-10,7.08-12.19,12.59-1.81,4.57-.28,9.72,3.43,11.48,1.31,.62,2.73,.92,4.13,.92,3.11,0,6.2-1.46,8.1-4.07,3.52-4.85,4.35-10.53,4.89-15.93,.11-1.12,.32-1.27,1.1-1.38,2.14-.29,4.27-.61,6.41-.92,2.67-.4,5.35-.79,8.03-1.14,1.98-.26,3.04-1.27,3.15-3,.12-1.96-.94-3.33-2.83-3.65-.52-.09-1.12-.18-1.75-.13l-1.16,.09c-1.75,.13-3.55,.27-5.33,.52-1.84,.26-3.64,.58-5.72,.95-.5,.09-1.01,.18-1.54,.27,.21-1.08,.41-2.16,.6-3.22,.64-3.48,1.24-6.76,2.15-9.98,1.04-3.68,3.75-6.07,7.26-6.38,4.39-.4,9.27-.47,15.36-.23,1.07,.04,2.49,.3,3.19,1.29,.75,1.05,.49,2.62,.15,3.75-.76,2.51-1.67,5.03-2.55,7.47-.29,.81-.58,1.62-.87,2.44-.74,2.09-1.51,4.18-2.27,6.27-1.63,4.44-3.32,9.03-4.72,13.63-1.05,3.44-.62,6.71,1.21,9.19,1.87,2.55,4.96,3.96,8.69,3.99l2.89,.02c9.94,.06,20.23,.13,30.34-.09,7.93-.17,14.86-2.75,20.59-7.67,10.36-8.89,11.72-22.9,3.25-33.32-4.28-5.26-10.76-6.53-16.5-3.23ZM88.35,47.02c-.3,.47-.95,.95-1.7,1.26-.69,.28-1.36,.26-1.77-.07-.36-.29-.51-.79-.41-1.41,.22-1.44,.81-2.98,1.67-4.32,1.18-1.86,2.81-3.4,5.31-4.95-.44,3.91-1.42,6.89-3.09,9.49Z"/>
  <path class="cls-1" d="M243.8,6.67c-3.19,4.25-5.17,9.49-6.03,16-.55,4.17-.96,8.41-1.35,12.52-.28,2.99-.58,6.09-.93,9.12-.12,1.08-.5,2.16-.89,3.3-.07,.21-.15,.43-.22,.64-.08-.14-.17-.28-.26-.42-.53-.85-1.02-1.65-1.22-2.47-.66-2.72-1.24-5.51-1.81-8.21-.55-2.6-1.11-5.3-1.74-7.94l-.36-1.53c-.81-3.45-1.65-7.03-3.07-10.33-.97-2.25-2.79-3.8-4.99-4.24-2.05-.42-4.13,.19-5.68,1.68-1.43,1.37-2.51,3.1-2.96,4.74-.87,3.15-1.59,6.39-2.3,9.52-.4,1.78-.8,3.56-1.23,5.34-.98,4.09-2.06,8.47-3.29,12.83-.05,.18-.39,.47-.68,.72-.3-.35-.59-.7-.64-.96-.41-2.14-.66-4.37-.9-6.53l-.12-1.05c-.24-2.06-.42-4.18-.59-6.23-.37-4.38-.76-8.92-1.71-13.29C198,6.9,188.43-.28,174.55,.18c-11.32,.38-20.13,5.59-26.19,15.48-5.7,9.3-5.76,18.24-.18,26.57,.85,1.27,2.61,3.51,4.87,4.24,1.74,.57,3.61,.56,5.42,.55,.74,0,1.47,0,2.2,.03l.94,.05,.26-2.29-1.23-.69c-.46-.25-.92-.51-1.37-.77-6.82-3.88-9.81-11.78-7.26-19.2,3.25-9.46,13-18.79,26.75-16.93,7.49,1.02,12.29,4.71,14.24,10.97,1.38,4.44,2.05,9.23,2.68,13.86l.12,.9c.34,2.48,.54,5.03,.73,7.5,.18,2.38,.37,4.85,.69,7.27,.65,4.86,3.91,7.79,8.36,7.47,3.3-.24,5.65-2.42,6.62-6.12,1.12-4.3,2.09-8.71,3.03-12.97,.55-2.52,1.11-5.04,1.69-7.55,.54-2.31,1.24-4.78,2.2-7.75,.06-.19,.29-.47,.47-.62,.17,.15,.41,.44,.54,.7,.6,1.27,1,2.38,1.2,3.4,.43,2.13,.83,4.27,1.22,6.4,.69,3.73,1.4,7.58,2.3,11.33,.76,3.18,2.02,6.55,3.73,10.01,.98,1.99,3.27,3.27,5.84,3.27,.03,0,.06,0,.09,0,2.58-.03,4.71-1.3,5.68-3.4,.12-.25,.24-.5,.36-.76,.56-1.16,1.14-2.36,1.35-3.68,.33-2.1,.55-4.24,.77-6.31,.16-1.52,.32-3.08,.52-4.61,.21-1.6,.41-3.21,.6-4.82,.53-4.42,1.08-9,2.09-13.36,1.63-7.1,4.76-10.68,10.16-11.59l.83-.14V0l-1.08,.08c-5.03,.38-8.95,2.54-11.99,6.59Z"/>
  <path class="cls-1" d="M59.91,.59c-1.3-.07-2.66,1.25-3.18,2.17-.44,.77-.68,1.61-.92,2.41-.18,.6-.34,1.17-.58,1.68-3.49,7.48-10.3,10.7-17.63,13.91-.3-.75-.59-1.5-.88-2.24-.95-2.42-1.87-4.78-2.83-7.11-.19-.46-.37-.91-.56-1.37-.78-1.94-1.59-3.94-2.65-5.8C29.13,1.55,26.62,.04,23.75,.11c-3.01,.07-5.85,1.86-7.22,4.55-.83,1.62-1.56,3.23-2.17,4.78-2.05,5.2-4.08,10.4-6.11,15.6l-2.58,6.61c-.52,1.33-1.05,2.66-1.59,4-1.15,2.88-2.35,5.86-3.41,8.85-1.48,4.13-.44,7.88,2.72,9.79,1.15,.69,2.66,1.06,4.22,1.06,2.44,0,5.02-.9,6.52-2.83,1.68-2.15,3.21-4.82,4.68-8.15,3.06-6.91,7.94-11.68,14.92-14.56,.18,.47,.36,.93,.54,1.4,.67,1.73,1.3,3.36,2.12,4.96l.8,1.56c2.28,4.45,4.64,9.06,7.33,13.38,2.16,3.46,5.87,4.82,10.75,3.94,3.59-.65,6.12-3.02,7.31-6.86,.45-1.46,.68-3.12,.69-4.95,.04-10.89,.03-21.97,.02-32.68V5.52c0-.15,0-.31,.01-.47,.03-.68,.07-1.54-.39-2.2-.69-.99-1.77-2.18-3-2.25Zm-9.77,46.55c-2.24-3.35-4.03-6.4-5.46-9.31-1.25-2.55-2.32-5.16-3.45-7.93-.37-.91-.75-1.84-1.14-2.77,6.5-2.67,11.87-5.55,16.36-10.17,.01,8.44,.02,16.89,0,25.33,0,.9-.12,1.8-.25,2.76l-.04,.32c-.21,1.61-.97,2.57-2.31,2.94-1.56,.43-2.95,0-3.72-1.17ZM21.66,9.72c.65-1.78,1.08-2.63,2.16-2.64,0,0,.02,0,.02,0,.93,0,1.27,.71,1.82,2.31,.12,.34,.23,.67,.36,.98,1.35,3.27,2.61,6.49,3.95,9.9,.4,1.03,.81,2.07,1.22,3.11-.47,.25-.94,.49-1.41,.72-1.6,.82-3.1,1.59-4.59,2.48-5.81,3.47-10.1,8.71-13.11,16.02-.69,1.69-1.47,3.45-2.6,4.75-.27,.31-1.07,.47-1.78,.61-.07,.01-.15,.03-.22,.04,0-.03-.01-.06-.02-.09-.14-.64-.29-1.3-.16-1.66,1.6-4.29,3.34-8.63,5.01-12.82,.74-1.85,1.48-3.71,2.22-5.57,.94-2.38,1.87-4.75,2.8-7.13,1.34-3.43,2.68-6.85,4.04-10.27,.1-.24,.19-.49,.28-.75Z"/>
  <path class="cls-1" d="M394.87,40.36c-.3-7.73-.8-15.87-1.57-25.63-.22-2.85-.79-5.95-1.7-9.24-.85-3.11-3.12-5.07-6.21-5.38-2.93-.3-5.41,1.12-6.96,3.97-1.15,2.11-2.05,4.47-2.61,6.83-.91,3.84-1.76,7.76-2.59,11.54-.72,3.3-1.46,6.71-2.24,10.05-.19,.81-.62,1.6-1.08,2.44-.06,.11-.12,.22-.18,.33-.03-.05-.07-.1-.1-.16-.4-.63-.79-1.23-.93-1.82-.55-2.27-1.06-4.6-1.56-6.85-.59-2.7-1.2-5.49-1.9-8.21-1.07-4.19-2.39-9.1-4.08-13.83-1.03-2.87-3.63-4.52-6.81-4.29-3.17,.23-5.56,2.17-6.38,5.21-.83,3.06-1.44,6.38-1.93,10.45-.29,2.41-.49,4.87-.69,7.25-.29,3.52-.59,7.16-1.18,10.67-1.11,6.61-2.85,13.2-10.66,14.96l-.78,.18v6.5l1.04-.05c5.52-.25,9.76-2.91,12.96-8.14,4.02-6.59,4.76-14.04,5.48-21.24l.09-.88c.2-2.03,.33-4.09,.45-6.08,.14-2.24,.28-4.55,.53-6.8l.04-.41c.17-1.62,.34-3.17,1.49-4.53,.02,.03,.04,.06,.06,.09,.45,.69,.83,1.29,1.02,1.9,.83,2.63,1.56,5.31,2.16,7.99,.51,2.27,.99,4.54,1.46,6.82,.75,3.55,1.52,7.23,2.41,10.82,.51,2.06,1.58,4.06,2.93,5.49,1.67,1.77,4.04,2.52,6.35,2,2.41-.54,4.35-2.37,5.18-4.91,1.35-4.11,2.32-8.4,3.26-12.54,.51-2.25,1.04-4.58,1.62-6.85,.88-3.43,1.92-6.74,3.08-10.38,.04-.07,.19-.19,.33-.31,.17,.15,.37,.33,.4,.39l.17,.83c.52,2.46,1.05,4.99,1.23,7.48,.14,1.91,.3,3.82,.45,5.73,.79,9.76,1.62,19.85,.6,29.79-.11,1.04,.13,1.93,.68,2.58,.39,.45,1.13,1.01,2.46,1.09,.87,.05,1.97,.02,2.77-.71,.56-.51,.87-1.27,.91-2.26,.05-1.35,.15-2.69,.24-4.04,.18-2.57,.36-5.23,.26-7.87Z"/>
  <path class="cls-1" d="M341.55,14.88c-1.24-6.91-5.4-11.72-12.03-13.9-6.03-1.98-11.91-.69-17,3.74-4.97,4.32-5.75,10.12-5.88,14.69-.12,4.37-.12,8.97,0,14.07,.04,1.52-.32,2.27-1.46,3.1-2.85,2.07-6.66,5.47-6.78,11.21v.02c-.01,4.09,2.26,6.93,5.92,7.41,.56,.07,1.11,.11,1.62,.11,3.77,0,6.22-1.95,6.96-5.59,.44-2.15,.46-4.37,.48-6.52l.02-1.29q.03-2.64,2.52-3.51c2.46-.86,5-1.65,7.45-2.41,2.05-.63,4.17-1.29,6.24-1.99,8.52-2.88,13.42-10.74,11.92-19.13Zm-13.63,12.46c-1.56,.58-3.21,1.07-4.8,1.54-.98,.29-1.96,.58-2.93,.9-1.76,.57-3.51,1.16-5.5,1.83l-1.58,.53c.09-1.57,.17-3.13,.23-4.66,.21-4.61,.41-8.96,1.19-13.25,.97-5.3,5.86-7.14,9.96-7.14,.17,0,.33,0,.5,0,4.45,.16,9.12,4.44,9.79,8.97,.74,4.95-2.02,9.48-6.86,11.27Zm-21.38,17.68c0,.86,0,1.74-.04,2.59-.03,.53-.2,.83-.27,.86-.02,0-.09,0-.19-.03-.21-.13-.57-.73-.61-1.01,.28-.82,.67-1.61,1.11-2.42Z"/>
  <path class="cls-1" d="M290.15,33.45c-.82,0-1.65,0-2.56,0h-.33v-7.34c0-6.04,0-12.08-.02-18.11,0-1.66-.16-2.97-.49-4.1-.45-1.56-1.46-2.8-2.77-3.41-1.23-.57-2.65-.56-3.98,.04-1.58,.71-3.15,2.06-4.2,3.63-2.54,3.79-5.01,7.71-7.39,11.51-1.01,1.61-2.03,3.22-3.05,4.83-.73,1.14-1.47,2.28-2.22,3.41-1.52,2.32-3.1,4.72-4.5,7.18-1.4,2.45-1.62,4.75-.63,6.49,1,1.74,3.11,2.72,5.95,2.76,3.38,.04,6.82,.02,10.14,0,1.51-.01,3.03-.02,4.54-.03h1.71c.03,.47,.05,.89,.05,1.32v1.44c.01,2.68,.02,5.36,0,8.04-.02,1.41,.33,2.47,1.03,3.17,.6,.6,1.41,.9,2.42,.9h.05c1-.01,1.81-.32,2.39-.92,.69-.72,1.02-1.78,.99-3.26-.02-.92-.01-1.85,0-2.77v-7.86s.39,0,.39,0c.91,0,1.73,0,2.55,0,.03,0,.06,0,.09,0,1.87,0,3.09-.36,3.84-1.12,.57-.58,.84-1.37,.82-2.35-.07-3.01-2.6-3.4-4.8-3.41Zm-9.93-23.68v23.68h-14.88l14.88-23.68Z"/>
</svg>